<?xml version="1.0" encoding="utf-8"?>
<!-- Generator: Adobe Illustrator 27.5.0, SVG Export Plug-In . SVG Version: 6.00 Build 0)  -->
<svg version="1.1" xmlns="http://www.w3.org/2000/svg" xmlns:xlink="http://www.w3.org/1999/xlink" x="0px" y="0px"
	 viewBox="0 0 800 800" style="enable-background:new 0 0 800 800;" xml:space="preserve">
<g id="background">
	<rect id="background_1_" y="3" style="opacity:0.5;fill:#FFFFFF;" width="799.998" height="800"/>
	<g>
		<path style="fill-rule:evenodd;clip-rule:evenodd;fill:#292C51;" d="M281.885,775.74c0.434-0.001,0.827-0.117,1.185-0.342
			c0.361-0.227,0.648-0.572,0.864-1.042c0.213-0.474,0.319-1.057,0.319-1.757c0-0.663-0.106-1.229-0.319-1.703
			c-0.216-0.478-0.506-0.843-0.875-1.088c-0.358-0.252-0.749-0.372-1.175-0.378v-1.788c0.402,0.06,0.761,0.164,1.073,0.318
			c0.489,0.244,0.968,0.625,1.433,1.131v-3.659c0-0.509,0.102-0.893,0.306-1.152c0.202-0.264,0.492-0.39,0.865-0.39
			c0.377,0,0.667,0.12,0.867,0.362c0.205,0.237,0.308,0.587,0.308,1.054v10.932c0,0.472-0.109,0.827-0.327,1.061
			c-0.221,0.237-0.502,0.353-0.848,0.353c-0.34,0-0.617-0.116-0.838-0.365c-0.221-0.242-0.333-0.597-0.333-1.049v-0.248
			c-0.332,0.387-0.66,0.691-0.983,0.933c-0.324,0.24-0.673,0.419-1.054,0.546c-0.15,0.048-0.307,0.089-0.469,0.119V775.74z
			 M279.518,772.6c0,0.669,0.103,1.24,0.312,1.716c0.21,0.472,0.497,0.822,0.858,1.063c0.362,0.242,0.759,0.362,1.19,0.362h0.008
			v1.848c-0.243,0.041-0.501,0.064-0.77,0.064c-0.593,0-1.143-0.125-1.647-0.374c-0.504-0.252-0.943-0.61-1.314-1.079
			c-0.37-0.459-0.649-1.011-0.841-1.642c-0.192-0.627-0.285-1.309-0.285-2.044c0-1.547,0.379-2.753,1.134-3.62
			c0.758-0.864,1.754-1.297,2.99-1.297c0.259,0,0.503,0.015,0.733,0.046v1.788h-0.027c-0.452,0-0.858,0.126-1.216,0.382
			c-0.355,0.258-0.633,0.631-0.828,1.111C279.614,771.402,279.518,771.965,279.518,772.6z"/>
		<path style="fill-rule:evenodd;clip-rule:evenodd;fill:#292C51;" d="M293.539,771.815h2.247c-0.059-0.844-0.289-1.48-0.688-1.897
			c-0.395-0.421-0.916-0.634-1.56-0.635v-1.724h0.077c0.969,0,1.8,0.2,2.489,0.616c0.697,0.407,1.215,0.933,1.563,1.58
			c0.344,0.644,0.513,1.308,0.513,1.979c0,0.62-0.18,1.03-0.534,1.212c-0.36,0.186-0.858,0.277-1.507,0.277h-2.6V771.815
			L293.539,771.815z M293.539,777.649v-1.646c0.063,0.003,0.124,0.006,0.186,0.006c0.294,0,0.566-0.034,0.814-0.104
			c0.243-0.065,0.478-0.179,0.709-0.327c0.233-0.149,0.444-0.308,0.64-0.476c0.191-0.17,0.441-0.399,0.751-0.688
			c0.127-0.111,0.309-0.169,0.544-0.169c0.254,0,0.458,0.071,0.617,0.212c0.157,0.138,0.237,0.337,0.237,0.587
			c0,0.226-0.088,0.485-0.262,0.788c-0.178,0.3-0.441,0.589-0.797,0.861c-0.352,0.276-0.798,0.502-1.335,0.69
			c-0.536,0.178-1.15,0.267-1.847,0.267C293.709,777.652,293.623,777.652,293.539,777.649z M291.294,771.815h2.245v1.409h-2.245
			c0.003,0.563,0.118,1.057,0.337,1.485c0.223,0.433,0.516,0.755,0.886,0.972c0.311,0.19,0.653,0.296,1.022,0.322v1.646
			c-1.467-0.05-2.62-0.5-3.456-1.36c-0.884-0.905-1.325-2.136-1.325-3.69c0-0.735,0.108-1.413,0.327-2.043
			c0.22-0.623,0.537-1.163,0.955-1.61c0.417-0.445,0.93-0.79,1.541-1.029c0.592-0.232,1.243-0.35,1.958-0.357v1.724h-0.006
			c-0.616,0-1.125,0.213-1.519,0.636C291.618,770.35,291.375,770.981,291.294,771.815z"/>
		<path style="fill-rule:evenodd;clip-rule:evenodd;fill:#292C51;" d="M308.25,774.416c0,0.679-0.166,1.266-0.498,1.751
			c-0.336,0.491-0.825,0.859-1.477,1.111c-0.648,0.249-1.443,0.374-2.373,0.374c-0.888,0-1.653-0.133-2.288-0.405
			c-0.64-0.272-1.104-0.617-1.409-1.021c-0.3-0.408-0.453-0.819-0.453-1.232c0-0.273,0.097-0.505,0.291-0.697
			c0.195-0.195,0.439-0.293,0.735-0.293c0.261,0,0.459,0.066,0.601,0.193c0.138,0.122,0.272,0.304,0.401,0.532
			c0.252,0.443,0.555,0.773,0.907,0.986c0.356,0.224,0.839,0.329,1.45,0.329c0.495,0,0.901-0.111,1.223-0.329
			c0.317-0.22,0.476-0.472,0.476-0.756c0-0.436-0.168-0.756-0.494-0.956c-0.329-0.195-0.874-0.393-1.632-0.571
			c-0.853-0.212-1.547-0.43-2.082-0.666c-0.534-0.234-0.961-0.539-1.283-0.921c-0.321-0.386-0.482-0.848-0.482-1.409
			c0.001-0.496,0.147-0.965,0.445-1.41c0.296-0.44,0.735-0.788,1.311-1.054c0.578-0.264,1.275-0.394,2.091-0.394
			c0.642,0,1.219,0.064,1.73,0.196c0.512,0.134,0.939,0.313,1.28,0.54c0.342,0.221,0.602,0.471,0.778,0.743
			c0.18,0.272,0.27,0.537,0.27,0.797c0,0.285-0.095,0.518-0.284,0.698c-0.191,0.178-0.463,0.273-0.813,0.273
			c-0.256,0-0.472-0.072-0.651-0.216c-0.178-0.144-0.382-0.361-0.612-0.654c-0.187-0.242-0.407-0.439-0.662-0.585
			c-0.254-0.142-0.6-0.217-1.036-0.217c-0.446,0-0.818,0.101-1.114,0.291c-0.298,0.188-0.447,0.427-0.447,0.706
			c0,0.265,0.109,0.477,0.329,0.642c0.219,0.167,0.508,0.307,0.881,0.417c0.366,0.106,0.877,0.237,1.522,0.398
			c0.77,0.19,1.397,0.406,1.886,0.67c0.488,0.262,0.857,0.567,1.107,0.924C308.125,773.556,308.25,773.961,308.25,774.416z"/>
		<path style="fill-rule:evenodd;clip-rule:evenodd;fill:#292C51;" d="M312.826,768.981v7.167c0,0.497-0.118,0.869-0.354,1.125
			c-0.234,0.255-0.536,0.38-0.897,0.38c-0.365,0-0.661-0.127-0.886-0.389c-0.229-0.261-0.341-0.634-0.341-1.116v-7.09
			c0-0.488,0.112-0.862,0.341-1.106c0.225-0.25,0.521-0.374,0.886-0.374c0.361,0,0.663,0.124,0.897,0.374
			C312.708,768.195,312.826,768.541,312.826,768.981L312.826,768.981z M311.601,766.425c-0.347,0-0.64-0.109-0.884-0.318
			c-0.247-0.212-0.368-0.514-0.368-0.898c0-0.352,0.126-0.643,0.377-0.869c0.251-0.23,0.541-0.34,0.875-0.34
			c0.32,0,0.605,0.101,0.854,0.308c0.247,0.209,0.371,0.508,0.371,0.901c0,0.38-0.121,0.678-0.361,0.896
			C312.221,766.313,311.934,766.425,311.601,766.425z"/>
		<path style="fill-rule:evenodd;clip-rule:evenodd;fill:#292C51;" d="M319.704,775.584c0.402-0.004,0.786-0.114,1.143-0.329
			c0.367-0.225,0.666-0.557,0.896-1.002c0.232-0.445,0.345-0.984,0.345-1.616c0-1.016-0.222-1.8-0.667-2.365
			c-0.436-0.552-1.008-0.832-1.716-0.841v-1.773c0.381,0.065,0.727,0.178,1.039,0.339c0.514,0.27,0.99,0.694,1.438,1.268v-0.336
			c0-0.428,0.103-0.764,0.316-0.996c0.21-0.238,0.482-0.354,0.813-0.354c0.481,0,0.798,0.158,0.956,0.467
			c0.156,0.307,0.234,0.757,0.234,1.349v7.199c0,0.82-0.084,1.53-0.262,2.126c-0.175,0.593-0.455,1.082-0.844,1.47
			c-0.387,0.383-0.895,0.676-1.522,0.862c-0.59,0.171-1.311,0.267-2.169,0.277v-1.725c0.542-0.02,0.973-0.106,1.289-0.267
			c0.354-0.176,0.6-0.425,0.746-0.747c0.143-0.324,0.221-0.668,0.246-1.029c0.023-0.366,0.046-0.953,0.059-1.767
			c-0.385,0.528-0.825,0.94-1.326,1.215c-0.302,0.17-0.641,0.287-1.014,0.354V775.584z M317.321,772.536
			c0,1.002,0.219,1.765,0.657,2.277c0.44,0.51,1.007,0.771,1.704,0.771h0.022v1.778c-0.241,0.043-0.497,0.063-0.768,0.063
			c-0.828,0-1.553-0.213-2.176-0.638c-0.619-0.42-1.097-1.012-1.427-1.778c-0.336-0.763-0.502-1.644-0.502-2.646
			c0-0.737,0.103-1.41,0.305-2.009c0.204-0.6,0.49-1.106,0.866-1.519c0.376-0.414,0.808-0.719,1.301-0.931
			c0.488-0.204,1.027-0.31,1.614-0.31c0.277,0,0.539,0.02,0.786,0.061v1.773h-0.041c-0.709,0-1.277,0.265-1.702,0.807
			C317.534,770.774,317.321,771.537,317.321,772.536L317.321,772.536z M319.704,779.604v1.725l-0.167,0.001
			c-0.852,0-1.619-0.118-2.288-0.359c-0.674-0.235-1.19-0.546-1.555-0.922c-0.36-0.384-0.541-0.769-0.541-1.171
			c0-0.302,0.102-0.545,0.308-0.733c0.203-0.199,0.451-0.293,0.741-0.293c0.364,0,0.683,0.161,0.956,0.48
			c0.132,0.163,0.267,0.333,0.412,0.496c0.144,0.166,0.3,0.31,0.474,0.429c0.17,0.117,0.379,0.204,0.62,0.261
			c0.241,0.058,0.521,0.089,0.835,0.089C319.569,779.606,319.638,779.606,319.704,779.604z"/>
		<path style="fill-rule:evenodd;clip-rule:evenodd;fill:#292C51;" d="M329.26,768.946v0.304c0.435-0.58,0.913-1,1.43-1.269
			c0.516-0.269,1.112-0.403,1.784-0.403c0.654,0,1.238,0.141,1.751,0.423c0.514,0.286,0.898,0.689,1.152,1.208
			c0.163,0.306,0.269,0.635,0.318,0.979c0.049,0.354,0.072,0.802,0.072,1.344v4.616c0,0.497-0.112,0.869-0.337,1.125
			c-0.229,0.255-0.525,0.38-0.889,0.38c-0.368,0-0.669-0.127-0.898-0.389c-0.228-0.261-0.343-0.634-0.343-1.116v-4.133
			c0-0.813-0.114-1.441-0.341-1.875c-0.227-0.433-0.681-0.648-1.36-0.648c-0.44,0-0.842,0.134-1.206,0.396
			c-0.364,0.258-0.629,0.622-0.799,1.084c-0.119,0.371-0.183,1.063-0.183,2.07v3.106c0,0.499-0.116,0.879-0.348,1.131
			c-0.235,0.249-0.534,0.374-0.904,0.374c-0.357,0-0.651-0.127-0.881-0.389c-0.229-0.261-0.343-0.634-0.343-1.116v-7.167
			c0-0.471,0.102-0.824,0.311-1.055c0.204-0.232,0.482-0.348,0.841-0.348c0.216,0,0.414,0.049,0.589,0.15
			c0.175,0.105,0.318,0.259,0.423,0.467C329.207,768.399,329.26,768.649,329.26,768.946z"/>
		<path style="fill-rule:evenodd;clip-rule:evenodd;fill:#292C51;" d="M342.555,771.815h2.248c-0.063-0.844-0.29-1.48-0.688-1.897
			c-0.393-0.421-0.915-0.634-1.56-0.635v-1.724h0.078c0.968,0,1.798,0.2,2.489,0.616c0.694,0.407,1.214,0.933,1.56,1.58
			c0.343,0.644,0.515,1.308,0.515,1.979c0,0.62-0.179,1.03-0.534,1.212c-0.357,0.186-0.857,0.277-1.507,0.277h-2.602V771.815
			L342.555,771.815z M342.555,777.649v-1.646c0.061,0.003,0.124,0.006,0.186,0.006c0.297,0,0.565-0.034,0.813-0.104
			c0.247-0.065,0.48-0.179,0.713-0.327c0.231-0.149,0.442-0.308,0.635-0.476c0.194-0.17,0.446-0.399,0.752-0.688
			c0.129-0.111,0.313-0.169,0.545-0.169c0.256,0,0.46,0.071,0.617,0.212c0.158,0.138,0.24,0.337,0.24,0.587
			c0,0.226-0.088,0.485-0.267,0.788c-0.175,0.3-0.44,0.589-0.795,0.861c-0.35,0.276-0.796,0.502-1.334,0.69
			c-0.532,0.178-1.151,0.267-1.847,0.267C342.727,777.652,342.641,777.652,342.555,777.649z M340.309,771.815h2.246v1.409h-2.246
			c0.005,0.563,0.117,1.057,0.338,1.485c0.222,0.433,0.517,0.755,0.879,0.972c0.317,0.19,0.66,0.296,1.029,0.322v1.646
			c-1.467-0.05-2.617-0.5-3.455-1.36c-0.882-0.905-1.327-2.136-1.327-3.69c0-0.735,0.113-1.413,0.328-2.043
			c0.218-0.623,0.536-1.163,0.956-1.61c0.418-0.445,0.928-0.79,1.541-1.029c0.591-0.232,1.24-0.349,1.957-0.357v1.724h-0.005
			c-0.617,0-1.125,0.213-1.522,0.636C340.635,770.35,340.394,770.981,340.309,771.815z"/>
		<path style="fill-rule:evenodd;clip-rule:evenodd;fill:#292C51;" d="M353.574,775.74c0.432-0.003,0.824-0.117,1.184-0.342
			c0.357-0.227,0.646-0.572,0.86-1.042c0.217-0.474,0.325-1.057,0.325-1.757c0-0.663-0.108-1.229-0.325-1.703
			c-0.215-0.478-0.504-0.843-0.871-1.088c-0.357-0.252-0.747-0.372-1.173-0.378v-1.788c0.402,0.06,0.759,0.164,1.066,0.318
			c0.491,0.244,0.97,0.625,1.435,1.131v-3.659c0-0.509,0.105-0.893,0.308-1.152c0.201-0.264,0.49-0.39,0.867-0.39
			c0.373,0,0.662,0.12,0.866,0.362c0.201,0.237,0.304,0.587,0.304,1.054v10.932c0,0.472-0.108,0.827-0.327,1.061
			c-0.217,0.237-0.501,0.353-0.843,0.353c-0.34,0-0.62-0.116-0.842-0.365c-0.222-0.242-0.333-0.597-0.333-1.049v-0.248
			c-0.332,0.387-0.659,0.691-0.984,0.933c-0.324,0.24-0.675,0.419-1.051,0.546c-0.151,0.048-0.305,0.089-0.466,0.119V775.74z
			 M351.202,772.6c0,0.669,0.105,1.24,0.315,1.716c0.21,0.472,0.494,0.822,0.856,1.063c0.364,0.242,0.761,0.362,1.189,0.362h0.013
			v1.848c-0.248,0.041-0.504,0.064-0.773,0.064c-0.593,0-1.144-0.125-1.648-0.374c-0.505-0.252-0.943-0.61-1.309-1.079
			c-0.372-0.459-0.651-1.011-0.841-1.642c-0.192-0.627-0.287-1.309-0.287-2.044c0-1.547,0.376-2.753,1.135-3.62
			c0.757-0.864,1.753-1.297,2.988-1.297c0.259,0,0.505,0.015,0.736,0.046v1.788h-0.031c-0.452,0-0.858,0.126-1.216,0.382
			c-0.357,0.258-0.633,0.631-0.83,1.111C351.299,771.402,351.202,771.965,351.202,772.6z"/>
		<path style="fill-rule:evenodd;clip-rule:evenodd;fill:#292C51;" d="M370.332,775.739l0.079,0.001
			c0.623,0,1.162-0.275,1.613-0.813c0.452-0.542,0.676-1.317,0.676-2.327c0-0.66-0.092-1.217-0.28-1.693
			c-0.188-0.471-0.456-0.836-0.799-1.094c-0.344-0.256-0.749-0.382-1.21-0.382c-0.026,0-0.052,0-0.079,0.003v-1.789
			c0.23-0.033,0.475-0.048,0.736-0.048c0.821,0,1.544,0.197,2.164,0.583c0.62,0.39,1.102,0.953,1.443,1.699
			c0.342,0.737,0.512,1.621,0.512,2.635c0,0.755-0.096,1.443-0.284,2.068c-0.19,0.626-0.469,1.17-0.831,1.628
			c-0.364,0.458-0.803,0.816-1.322,1.068c-0.515,0.249-1.086,0.374-1.709,0.374c-0.246,0-0.483-0.017-0.709-0.056V775.739z
			 M367.962,772.669c0,0.987,0.227,1.747,0.675,2.275c0.436,0.511,0.999,0.775,1.695,0.795v1.857
			c-0.126-0.021-0.249-0.048-0.367-0.077c-0.336-0.094-0.623-0.213-0.857-0.364c-0.236-0.144-0.439-0.296-0.608-0.457
			c-0.163-0.155-0.383-0.391-0.652-0.708v0.248c0,0.466-0.112,0.816-0.339,1.061c-0.223,0.237-0.507,0.353-0.852,0.353
			c-0.352,0-0.632-0.116-0.841-0.353c-0.209-0.244-0.314-0.595-0.314-1.061v-10.826c0-0.496,0.102-0.878,0.306-1.135
			c0.204-0.261,0.483-0.387,0.85-0.387c0.38,0,0.675,0.123,0.88,0.37c0.205,0.246,0.311,0.592,0.311,1.046v3.785
			c0.465-0.485,0.939-0.854,1.422-1.11c0.31-0.164,0.662-0.275,1.063-0.337v1.789c-0.44,0.012-0.831,0.14-1.179,0.379
			c-0.37,0.258-0.663,0.631-0.875,1.119C368.067,771.422,367.962,771.999,367.962,772.669z"/>
		<path style="fill-rule:evenodd;clip-rule:evenodd;fill:#292C51;" d="M379.22,777.964l0.228-0.554l-3.052-7.682
			c-0.186-0.445-0.281-0.767-0.281-0.961c0-0.209,0.054-0.416,0.164-0.592c0.108-0.186,0.257-0.326,0.449-0.434
			c0.19-0.111,0.389-0.164,0.593-0.164c0.36,0,0.628,0.113,0.809,0.339c0.182,0.225,0.345,0.55,0.483,0.977l2.098,6.1l1.986-5.674
			c0.157-0.462,0.302-0.818,0.427-1.08c0.127-0.262,0.262-0.436,0.406-0.525c0.14-0.092,0.341-0.136,0.602-0.136
			c0.188,0,0.367,0.049,0.54,0.15c0.175,0.1,0.305,0.232,0.398,0.401c0.095,0.17,0.141,0.349,0.141,0.534
			c-0.022,0.112-0.063,0.278-0.116,0.49c-0.053,0.214-0.122,0.432-0.201,0.646l-3.23,8.459c-0.278,0.75-0.551,1.329-0.818,1.752
			c-0.264,0.427-0.616,0.751-1.058,0.978c-0.439,0.227-1.029,0.34-1.772,0.34c-0.728,0-1.272-0.081-1.636-0.235
			c-0.362-0.153-0.543-0.442-0.543-0.859c0-0.287,0.084-0.504,0.257-0.663c0.174-0.157,0.428-0.229,0.769-0.229
			c0.13,0,0.262,0.018,0.391,0.056c0.157,0.034,0.292,0.051,0.407,0.051c0.284,0,0.509-0.042,0.67-0.127
			c0.165-0.08,0.313-0.229,0.441-0.438C378.9,778.676,379.053,778.367,379.22,777.964z"/>
		<path style="fill-rule:evenodd;clip-rule:evenodd;fill:#292C51;" d="M425.083,767.795h0.596v-0.744
			c0-0.778,0.098-1.392,0.295-1.848c0.193-0.455,0.529-0.791,0.996-0.999c0.473-0.21,1.111-0.313,1.934-0.313
			c1.44,0,2.17,0.353,2.17,1.063c0,0.227-0.08,0.424-0.23,0.59c-0.152,0.164-0.326,0.248-0.537,0.248
			c-0.098,0-0.264-0.02-0.498-0.058c-0.234-0.035-0.434-0.054-0.602-0.054c-0.445,0-0.732,0.132-0.859,0.395
			c-0.129,0.263-0.193,0.641-0.193,1.127v0.594h0.611c0.943,0,1.418,0.286,1.418,0.852c0,0.405-0.127,0.664-0.375,0.772
			c-0.256,0.109-0.602,0.167-1.043,0.167h-0.611v6.562c0,0.488-0.117,0.864-0.348,1.123c-0.233,0.257-0.533,0.382-0.904,0.382
			c-0.348,0-0.641-0.125-0.877-0.382c-0.232-0.259-0.346-0.635-0.346-1.123v-6.562h-0.685c-0.369,0-0.652-0.086-0.852-0.256
			c-0.199-0.164-0.301-0.379-0.301-0.646C423.841,768.09,424.259,767.795,425.083,767.795z"/>
		<path style="fill-rule:evenodd;clip-rule:evenodd;fill:#292C51;" d="M433.938,774.074v2.073c0,0.499-0.113,0.879-0.352,1.131
			c-0.238,0.249-0.533,0.374-0.902,0.374c-0.352,0-0.648-0.125-0.877-0.38c-0.23-0.256-0.348-0.628-0.348-1.125v-6.898
			c0-1.12,0.402-1.672,1.205-1.672c0.412,0,0.711,0.13,0.893,0.389c0.184,0.258,0.281,0.646,0.301,1.151
			c0.297-0.506,0.602-0.894,0.912-1.151c0.313-0.259,0.727-0.389,1.25-0.389c0.518,0,1.022,0.13,1.516,0.389
			c0.492,0.258,0.732,0.606,0.732,1.033c0,0.305-0.102,0.554-0.311,0.752c-0.213,0.195-0.434,0.292-0.68,0.292
			c-0.09,0-0.31-0.056-0.656-0.165c-0.348-0.115-0.654-0.172-0.926-0.172c-0.361,0-0.658,0.102-0.885,0.292
			c-0.23,0.185-0.41,0.471-0.537,0.844c-0.127,0.379-0.215,0.824-0.264,1.343C433.962,772.702,433.938,773.332,433.938,774.074z"/>
		<path style="fill-rule:evenodd;clip-rule:evenodd;fill:#292C51;" d="M443.476,771.815h2.248c-0.066-0.844-0.289-1.48-0.684-1.897
			c-0.396-0.421-0.92-0.634-1.564-0.635v-1.724h0.08c0.965,0,1.795,0.2,2.488,0.616c0.69,0.407,1.213,0.933,1.557,1.58
			c0.344,0.644,0.52,1.308,0.52,1.979c0,0.62-0.176,1.03-0.535,1.212c-0.355,0.186-0.858,0.277-1.51,0.277h-2.6V771.815
			L443.476,771.815z M443.476,777.649v-1.646c0.063,0.003,0.125,0.006,0.186,0.006c0.299,0,0.57-0.034,0.816-0.104
			c0.24-0.065,0.483-0.179,0.707-0.327c0.232-0.149,0.445-0.308,0.641-0.476c0.191-0.17,0.447-0.399,0.746-0.688
			c0.133-0.111,0.318-0.169,0.553-0.169c0.252,0,0.455,0.071,0.613,0.212c0.158,0.138,0.234,0.337,0.234,0.587
			c0,0.226-0.084,0.485-0.26,0.788c-0.178,0.3-0.441,0.589-0.791,0.861c-0.357,0.276-0.803,0.502-1.338,0.69
			c-0.537,0.178-1.15,0.267-1.848,0.267C443.647,777.652,443.561,777.652,443.476,777.649z M441.227,771.815h2.248v1.409h-2.248
			c0.01,0.563,0.121,1.057,0.34,1.485c0.223,0.433,0.514,0.755,0.885,0.972c0.315,0.19,0.654,0.294,1.023,0.322v1.646
			c-1.469-0.05-2.621-0.5-3.453-1.36c-0.883-0.905-1.326-2.136-1.326-3.69c0-0.735,0.107-1.413,0.328-2.043
			c0.217-0.623,0.535-1.163,0.951-1.61c0.416-0.445,0.93-0.79,1.545-1.029c0.586-0.232,1.238-0.349,1.955-0.357v1.724h-0.006
			c-0.617,0-1.125,0.213-1.522,0.636C441.554,770.35,441.313,770.981,441.227,771.815z"/>
		<path style="fill-rule:evenodd;clip-rule:evenodd;fill:#292C51;" d="M454.526,771.815h2.242c-0.061-0.844-0.291-1.48-0.68-1.897
			c-0.398-0.421-0.916-0.634-1.563-0.635v-1.724h0.072c0.973,0,1.803,0.2,2.496,0.616c0.689,0.407,1.213,0.933,1.559,1.58
			c0.346,0.644,0.514,1.308,0.514,1.979c0,0.62-0.18,1.03-0.537,1.212c-0.353,0.186-0.853,0.277-1.504,0.277h-2.6V771.815
			L454.526,771.815z M454.526,777.649v-1.646c0.06,0.003,0.119,0.006,0.184,0.006c0.295,0,0.564-0.034,0.81-0.104
			c0.246-0.065,0.488-0.179,0.711-0.327c0.233-0.149,0.445-0.308,0.641-0.476c0.195-0.17,0.447-0.399,0.756-0.688
			c0.125-0.111,0.303-0.169,0.541-0.169c0.254,0,0.461,0.071,0.623,0.212c0.148,0.138,0.23,0.337,0.23,0.587
			c0,0.226-0.084,0.485-0.262,0.788c-0.176,0.3-0.443,0.589-0.797,0.861c-0.354,0.276-0.797,0.502-1.334,0.69
			c-0.537,0.178-1.152,0.267-1.848,0.267C454.696,777.652,454.61,777.652,454.526,777.649z M452.28,771.815h2.246v1.409h-2.246
			c0.002,0.563,0.119,1.057,0.336,1.485c0.221,0.433,0.52,0.755,0.883,0.972c0.314,0.19,0.656,0.294,1.027,0.322v1.646
			c-1.469-0.05-2.617-0.5-3.455-1.36c-0.885-0.905-1.326-2.136-1.326-3.69c0-0.735,0.111-1.413,0.322-2.043
			c0.223-0.623,0.541-1.163,0.957-1.61c0.412-0.445,0.93-0.79,1.545-1.029c0.592-0.232,1.242-0.35,1.957-0.357v1.724h-0.01
			c-0.613,0-1.121,0.213-1.52,0.636C452.602,770.35,452.356,770.981,452.28,771.815z"/>
		<path style="fill-rule:evenodd;clip-rule:evenodd;fill:#292C51;" d="M468.153,772.57c0-0.654-0.096-1.216-0.299-1.684
			c-0.201-0.471-0.473-0.833-0.828-1.078c-0.352-0.255-0.746-0.378-1.176-0.378l-0.066,0.002v-1.782
			c0.213-0.036,0.439-0.054,0.676-0.054c0.76,0,1.461,0.197,2.107,0.591c0.639,0.396,1.147,0.967,1.518,1.723
			c0.371,0.757,0.557,1.649,0.557,2.689c0,0.761-0.109,1.459-0.32,2.099c-0.215,0.637-0.506,1.177-0.885,1.608
			c-0.379,0.431-0.818,0.768-1.326,1.001c-0.516,0.231-1.064,0.346-1.65,0.346c-0.238,0-0.463-0.015-0.676-0.049v-1.864l0.066,0.001
			c0.414,0,0.791-0.12,1.143-0.362c0.352-0.24,0.637-0.591,0.844-1.073C468.046,773.825,468.153,773.249,468.153,772.57z
			 M465.784,769.433c-0.654,0.015-1.209,0.281-1.662,0.805c-0.469,0.537-0.707,1.332-0.707,2.38c0,0.983,0.236,1.75,0.703,2.297
			c0.447,0.535,1.006,0.807,1.666,0.825v1.864c-0.422-0.064-0.791-0.187-1.107-0.379c-0.484-0.281-0.941-0.696-1.381-1.25v3.723
			c0,1.092-0.395,1.632-1.182,1.632c-0.469,0-0.775-0.141-0.932-0.423c-0.152-0.277-0.225-0.692-0.225-1.229v-10.697
			c0-0.471,0.105-0.824,0.309-1.055c0.205-0.232,0.484-0.348,0.848-0.348c0.348,0,0.635,0.116,0.852,0.356
			c0.225,0.241,0.33,0.584,0.33,1.027v0.303c0.477-0.574,0.957-0.999,1.457-1.268c0.316-0.167,0.662-0.284,1.031-0.346V769.433z"/>
		<path style="fill-rule:evenodd;clip-rule:evenodd;fill:#292C51;" d="M475.112,768.981v7.167c0,0.497-0.119,0.869-0.357,1.125
			c-0.234,0.255-0.533,0.38-0.898,0.38c-0.363,0-0.654-0.127-0.885-0.389c-0.227-0.261-0.338-0.634-0.338-1.116v-7.09
			c0-0.488,0.111-0.862,0.338-1.106c0.23-0.25,0.522-0.374,0.885-0.374c0.365,0,0.664,0.124,0.898,0.374
			C474.993,768.195,475.112,768.541,475.112,768.981L475.112,768.981z M473.888,766.425c-0.35,0-0.648-0.109-0.891-0.318
			c-0.24-0.212-0.363-0.514-0.363-0.898c0-0.352,0.127-0.643,0.377-0.869c0.248-0.23,0.541-0.34,0.877-0.34
			c0.316,0,0.603,0.101,0.855,0.308c0.244,0.209,0.369,0.508,0.369,0.901c0,0.38-0.123,0.678-0.365,0.896
			C474.507,766.313,474.218,766.425,473.888,766.425z"/>
		<path style="fill-rule:evenodd;clip-rule:evenodd;fill:#292C51;" d="M483.847,776.519l-2.191-3.597l-1.346,1.274v1.971
			c0,0.477-0.121,0.845-0.369,1.104c-0.26,0.257-0.545,0.382-0.869,0.382c-0.385,0-0.684-0.125-0.9-0.38
			c-0.219-0.256-0.326-0.628-0.326-1.125v-10.568c0-0.55,0.102-0.969,0.314-1.256c0.215-0.29,0.514-0.433,0.912-0.433
			c0.381,0,0.684,0.126,0.906,0.39c0.223,0.26,0.332,0.644,0.332,1.152v6.013l2.789-2.927c0.348-0.362,0.609-0.61,0.787-0.744
			c0.186-0.132,0.408-0.196,0.666-0.196c0.31,0,0.563,0.093,0.773,0.296c0.203,0.195,0.307,0.44,0.307,0.738
			c0,0.362-0.334,0.85-1.008,1.455l-1.313,1.203l2.537,3.996c0.195,0.298,0.328,0.524,0.406,0.677
			c0.082,0.154,0.121,0.304,0.121,0.436c0,0.397-0.104,0.704-0.322,0.937c-0.215,0.221-0.5,0.336-0.846,0.336
			c-0.305,0-0.539-0.079-0.703-0.242C484.345,777.247,484.124,776.945,483.847,776.519z"/>
		<path style="fill-rule:evenodd;clip-rule:evenodd;fill:#292C51;" d="M489.97,777.652c-0.371,0-0.693-0.116-0.967-0.362
			c-0.273-0.239-0.412-0.58-0.412-1.018c0-0.368,0.135-0.686,0.389-0.953c0.266-0.265,0.588-0.397,0.967-0.397
			c0.381,0,0.705,0.132,0.975,0.393c0.268,0.265,0.402,0.58,0.402,0.957c0,0.433-0.135,0.773-0.402,1.016
			C490.651,777.536,490.337,777.652,489.97,777.652z"/>
		<path style="fill-rule:evenodd;clip-rule:evenodd;fill:#292C51;" d="M503.04,774.584c0,0.312-0.098,0.639-0.281,0.992
			c-0.184,0.353-0.465,0.684-0.84,1.005c-0.377,0.316-0.859,0.573-1.432,0.761c-0.572,0.195-1.225,0.293-1.945,0.293
			c-1.531,0-2.723-0.447-3.584-1.339c-0.857-0.89-1.291-2.087-1.291-3.587c0-1.024,0.199-1.92,0.592-2.702
			c0.389-0.777,0.965-1.383,1.709-1.806c0.74-0.43,1.631-0.642,2.668-0.642c0.641,0,1.227,0.092,1.764,0.28
			c0.537,0.19,0.99,0.426,1.363,0.729c0.371,0.292,0.658,0.611,0.853,0.945c0.197,0.34,0.295,0.65,0.295,0.94
			c0,0.299-0.111,0.549-0.336,0.756c-0.215,0.208-0.484,0.306-0.797,0.306c-0.211,0-0.383-0.054-0.518-0.159
			c-0.135-0.104-0.291-0.273-0.455-0.515c-0.305-0.454-0.621-0.802-0.951-1.031c-0.328-0.231-0.75-0.344-1.256-0.344
			c-0.73,0-1.32,0.284-1.768,0.855c-0.449,0.573-0.676,1.35-0.676,2.346c0,0.467,0.053,0.896,0.174,1.288
			c0.111,0.386,0.281,0.718,0.502,0.997c0.211,0.271,0.479,0.484,0.787,0.625c0.307,0.142,0.65,0.215,1.017,0.215
			c0.488,0,0.92-0.117,1.273-0.345c0.355-0.232,0.666-0.577,0.943-1.056c0.147-0.278,0.315-0.496,0.49-0.652
			c0.174-0.157,0.385-0.235,0.641-0.235c0.307,0,0.555,0.115,0.756,0.345C502.936,774.083,503.04,774.328,503.04,774.584z"/>
		<path style="fill-rule:evenodd;clip-rule:evenodd;fill:#292C51;" d="M511.991,772.617c0-1.012-0.227-1.8-0.67-2.362
			c-0.44-0.56-1.031-0.841-1.779-0.847v-1.83c0.752,0.002,1.424,0.125,2.029,0.359c0.611,0.242,1.135,0.586,1.572,1.037
			c0.435,0.45,0.766,0.982,0.992,1.599c0.229,0.617,0.342,1.298,0.342,2.044c0,0.734-0.113,1.417-0.342,2.035
			c-0.234,0.631-0.572,1.165-1.006,1.61c-0.432,0.447-0.953,0.792-1.559,1.036c-0.602,0.237-1.277,0.353-2.029,0.353v-1.847
			c0.748-0.002,1.34-0.281,1.779-0.847C511.765,774.394,511.991,773.61,511.991,772.617z M509.542,769.408l-0.016-0.001
			c-0.483,0-0.91,0.126-1.279,0.377c-0.365,0.257-0.652,0.625-0.855,1.112c-0.197,0.494-0.297,1.068-0.297,1.721
			c0,0.647,0.098,1.214,0.297,1.698c0.195,0.482,0.478,0.851,0.842,1.109c0.367,0.257,0.799,0.381,1.293,0.381h0.016v1.847h-0.016
			c-0.744,0-1.42-0.116-2.025-0.362c-0.596-0.239-1.113-0.586-1.557-1.039c-0.435-0.451-0.77-0.984-0.992-1.599
			c-0.23-0.614-0.344-1.292-0.344-2.035c0-0.753,0.113-1.44,0.352-2.065c0.223-0.62,0.553-1.157,0.982-1.597
			c0.428-0.44,0.951-0.78,1.559-1.022c0.617-0.24,1.287-0.356,2.025-0.356h0.016V769.408z"/>
		<path style="fill-rule:evenodd;clip-rule:evenodd;fill:#292C51;" d="M524.673,772.797v3.293c0,0.521-0.119,0.913-0.356,1.174
			c-0.232,0.262-0.549,0.389-0.936,0.389c-0.375,0-0.678-0.127-0.91-0.389c-0.234-0.261-0.352-0.653-0.352-1.174v-3.949
			c0-0.624-0.022-1.101-0.064-1.45c-0.039-0.345-0.156-0.629-0.346-0.847c-0.186-0.225-0.483-0.329-0.889-0.329
			c-0.809,0-1.342,0.275-1.598,0.831c-0.258,0.557-0.385,1.354-0.385,2.396v3.348c0,0.518-0.123,0.902-0.355,1.168
			c-0.229,0.264-0.537,0.394-0.92,0.394c-0.373,0-0.682-0.131-0.922-0.394c-0.242-0.266-0.359-0.65-0.359-1.168V769
			c0-0.465,0.107-0.82,0.324-1.063c0.215-0.235,0.496-0.359,0.846-0.359c0.34,0,0.627,0.113,0.85,0.339
			c0.23,0.225,0.342,0.541,0.342,0.94v0.234c0.432-0.509,0.889-0.891,1.379-1.134c0.494-0.239,1.035-0.361,1.635-0.361
			c0.625,0,1.16,0.122,1.606,0.37c0.449,0.246,0.822,0.625,1.107,1.125c0.422-0.506,0.869-0.887,1.348-1.131
			c0.475-0.242,1.008-0.364,1.59-0.364c0.676,0,1.26,0.132,1.75,0.393c0.49,0.275,0.856,0.651,1.092,1.145
			c0.219,0.451,0.324,1.159,0.324,2.118v4.837c0,0.521-0.125,0.913-0.359,1.174c-0.23,0.262-0.539,0.389-0.932,0.389
			c-0.371,0-0.68-0.131-0.918-0.394c-0.24-0.266-0.359-0.65-0.359-1.168v-4.167c0-0.526-0.023-0.956-0.07-1.283
			c-0.045-0.316-0.166-0.586-0.367-0.802c-0.197-0.219-0.502-0.323-0.908-0.323c-0.326,0-0.633,0.095-0.928,0.286
			c-0.291,0.193-0.521,0.454-0.689,0.783C524.761,771.001,524.673,771.735,524.673,772.797z"/>
		<path style="fill-rule:evenodd;clip-rule:evenodd;fill:#292C51;" d="M405.556,761.188c-0.051-0.162-0.104-0.317-0.156-0.475
			c0.832-0.078,1.393-1.076,0.984-1.816c-0.195-0.44-0.652-0.679-1.109-0.688h-0.051c-0.388,0.006-0.767,0.174-0.99,0.52
			c-0.529,0.67-0.117,1.74,0.697,1.959c0.047,0.166,0.098,0.338,0.148,0.516c-1.25,0.081-2.523,0.357-3.569,1.071
			c0.108,0.296,0.217,0.604,0.323,0.912c2.112-0.93,4.482-0.73,6.709-0.507c0.074-0.294,0.146-0.589,0.225-0.882
			C407.759,761.344,406.653,761.179,405.556,761.188z"/>
		<path style="fill-rule:evenodd;clip-rule:evenodd;fill:#292C51;" d="M418.116,764.596c-0.33,0.17-0.395,0.574-0.373,0.907
			c-0.375,0.363-0.199,0.908-0.236,1.362c-0.086,0.254-0.391,0.281-0.601,0.375c-0.291-0.439-0.602-0.869-0.994-1.231l0.002-0.022
			c-0.424-0.398-0.885-0.764-1.371-1.077c-0.391,0.419-0.801,0.832-1.174,1.266c0.74,0.816,1.43,1.697,2.037,2.619
			c0.422,0.705,0.758,1.455,1.045,2.219c0.631-0.322,1.248-0.657,1.881-0.991c-0.334-0.763-0.713-1.512-1.115-2.247
			c0.279-0.147,0.652-0.293,0.695-0.655c0.031-0.401-0.059-0.837,0.184-1.188c0.484,0.317,1.221-0.037,1.228-0.63
			C419.388,764.688,418.62,764.253,418.116,764.596z"/>
		<path style="fill-rule:evenodd;clip-rule:evenodd;fill:#292C51;" d="M413.192,769.678c-0.146,1.02-1.119,1.885-2.162,1.822v4.091
			c1.914-0.514,3.764-1.272,5.475-2.273c0,0-0.361-1.99-1.781-4.163c-0.818-1.359-1.703-2.709-2.908-3.757
			c-0.248-0.218-0.512-0.423-0.785-0.616v2.365c0.262,0.01,0.525,0.057,0.779,0.117C412.765,767.602,413.39,768.685,413.192,769.678
			z M411.03,771.5h-0.008c-0.604,0.049-1.186-0.237-1.596-0.663c-0.295-0.365-0.537-0.787-0.578-1.267
			c-0.143-1.036,0.59-2.108,1.603-2.35c0.191-0.058,0.383-0.077,0.578-0.074v-2.365c-1.254-0.874-2.752-1.43-4.287-1.422
			c-1.896-0.02-3.811,0.218-5.616,0.801v2.248c0.334,0.002,0.667,0.049,0.99,0.138c0.365,0.095,0.7,0.264,1.012,0.473
			c0.645,0.455,1.131,1.13,1.346,1.894c0.299,0.978,0.107,2.076-0.462,2.921c-0.413,0.596-0.999,1.059-1.675,1.319
			c-0.385,0.145-0.8,0.213-1.211,0.213v3.034l0.096,0.006c2.215,0.066,4.45,0.123,6.651-0.188c1.063-0.14,2.119-0.35,3.156-0.628
			V771.5z M401.127,764.16v2.248c-0.571-0.001-1.14,0.132-1.645,0.402c-1.05,0.562-1.785,1.673-1.835,2.867
			c-0.07,0.956,0.311,1.905,0.948,2.611c0.64,0.706,1.585,1.077,2.531,1.077v3.034c-2.216-0.111-4.398-0.592-6.545-1.129
			c-0.394-1.988-0.406-4.143,0.468-6.013c0.904-2.079,2.689-3.691,4.748-4.596C400.232,764.474,400.677,764.308,401.127,764.16z"/>
		<path style="fill-rule:evenodd;clip-rule:evenodd;fill:#292C51;" d="M395.076,766.121c-0.885,0.534-1.612,1.289-2.221,2.118
			c-0.177-0.331-0.233-0.723-0.461-1.016c-0.134-0.178-0.367-0.104-0.554-0.107c-0.234,0.024-0.462-0.04-0.683-0.106
			c0.258-0.367,0.188-0.924-0.209-1.162c-0.423-0.306-1.079-0.04-1.189,0.464c-0.18,0.553,0.41,1.106,0.951,0.962
			c0.287,0.428,0.807,0.357,1.251,0.371c0.198,0.345,0.35,0.727,0.604,1.039c-0.475,0.935-0.741,1.982-0.762,3.033
			c0.608,0.254,1.217,0.515,1.831,0.77c0.027-0.666,0.104-1.322,0.205-1.972c0.205-1.424,1.027-2.66,2.003-3.68
			C395.6,766.581,395.331,766.362,395.076,766.121z"/>
		<path style="fill-rule:evenodd;clip-rule:evenodd;fill:#292C51;" d="M409.319,776.842c-2.244,0.491-4.561,0.634-6.857,0.533
			c-1.551-0.079-3.103-0.221-4.621-0.557c-1.073-0.22-2.127-0.531-3.184-0.834c0.167,1.351,0.715,2.643,1.493,3.754
			c0.921,1.297,2.15,2.482,3.683,2.962c1.12,0.302,2.445,0.684,4.626,0.692h0.222l0.227-0.004c2.029-0.033,4.027-0.292,5.805-1.05
			c1.15-0.493,2.23-1.168,3.154-2.01c0.801-0.754,1.424-1.69,1.859-2.703c0.418-0.951,0.793-2.667,0.754-3.542
			C414.28,775.335,411.823,776.423,409.319,776.842z"/>
	</g>
</g>
<g id="object">
	<g>
		
			<radialGradient id="SVGID_1_" cx="337.4088" cy="1078.5017" r="254.3796" gradientTransform="matrix(1.2284 0 0 0.0685 -39.7919 507.1205)" gradientUnits="userSpaceOnUse">
			<stop  offset="0" style="stop-color:#5E506E"/>
			<stop  offset="0.1391" style="stop-color:#6E617C"/>
			<stop  offset="0.4162" style="stop-color:#988FA2"/>
			<stop  offset="0.8017" style="stop-color:#DAD7DE"/>
			<stop  offset="1" style="stop-color:#FFFFFF"/>
		</radialGradient>
		<path style="opacity:0.4;fill:url(#SVGID_1_);" d="M688.576,580.331c0,14.497-141.36,26.248-315.736,26.248
			c-174.373,0-315.731-11.751-315.731-26.248c0-14.497,141.358-26.248,315.731-26.248
			C547.216,554.083,688.576,565.834,688.576,580.331z"/>
		<g>
			<polygon style="fill:#FFE37F;" points="127,197 222,197 208,213 			"/>
			<polygon style="fill:#FED001;" points="127,197 208,213 188,229 			"/>
			<polygon style="fill:#ED9E00;" points="127,197 168,233 188,229 			"/>
			<polygon style="fill:#ED9D00;" points="181,265 168,233 188,229 			"/>
			<polygon style="fill:#DDDF00;" points="208,213 222,197 261,210 			"/>
			<polygon style="fill:#3CAA37;" points="188,229 211,266 181,265 			"/>
			<polygon style="fill:#47CB82;" points="188,229 211,266 229,237 			"/>
			<polygon style="fill:#94D41E;" points="188,229 208,213 229,237 			"/>
			<polygon style="fill:#47CB82;" points="208,213 229,237 261,210 			"/>
			<polygon style="fill:#1E984F;" points="181,265 211,266 165.75,323 			"/>
			<polygon style="fill:#FFDE07;" points="229,237 261,210 287,237.25 			"/>
			<polygon style="fill:#F9CA34;" points="287,237.25 229,237 257,276 			"/>
			<polygon style="fill:#FEDF00;" points="229,237 211,266 257,276 			"/>
			<polygon style="fill:#F29200;" points="287,237.25 321,302 277,308 			"/>
			<polygon style="fill:#F9B234;" points="277,308 257,276 287,237.25 			"/>
			<polygon style="fill:#1E984F;" points="165.75,323 168,384 201,366 			"/>
			<polygon style="fill:#47CB82;" points="165.75,323 201,366 209,337 			"/>
			<polygon style="fill:#3CAA37;" points="165.75,323 211,266 209,337 			"/>
			<polygon style="fill:#94D41E;" points="211,266 240,329 209,337 			"/>
			<polygon style="fill:#DDDF00;" points="211,266 257,276 240,329 			"/>
			<polygon style="fill:#FEDF00;" points="257,276 240,329 277,308 			"/>
			<polygon style="fill:#4080FE;" points="201,366 205,442 168,384 			"/>
			<polygon style="fill:#36CDE2;" points="209,337 201,366 249,385 			"/>
			<polygon style="fill:#3FA2FF;" points="201,366 205,442 249,385 			"/>
			<polygon style="fill:#48E1ED;" points="209,337 240,329 249,385 			"/>
			<polygon style="fill:#DDDF00;" points="240,329 277,308 292,368 			"/>
			<polygon style="fill:#36CDE2;" points="292,368 249,385 240,329 			"/>
			<polygon style="fill:#F9B234;" points="277,308 292,368 321,302 			"/>
			<polygon style="fill:#4080FE;" points="249,385 205,442 262,485 			"/>
			<polygon style="fill:#3FA2FF;" points="249,385 262,485 302,456 			"/>
			<polygon style="fill:#48E1ED;" points="249,385 302,456 292,368 			"/>
			<polygon style="fill:#F29200;" points="292,368 347,319 321,302 			"/>
			<polygon style="fill:#F9B234;" points="347,319 292,368 381,342 			"/>
			<polygon style="fill:#F9CA34;" points="381,342 292,368 361,380 			"/>
			<polygon style="fill:#FEDF00;" points="292,368 361,380 347,427 			"/>
			<polygon style="fill:#DDDF00;" points="347,427 292,368 302,456 			"/>
			<polygon style="fill:#F9B234;" points="361,380 381,342 447,380 			"/>
			<polygon style="fill:#F29200;" points="361,380 439.875,422.625 447,380 			"/>
			<polygon style="fill:#F9B234;" points="361,380 439.875,422.625 405,446 			"/>
			<polygon style="fill:#DDDF00;" points="405,446 347,427 363,470 			"/>
			<polygon style="fill:#3FA2FF;" points="347,427 363,470 334,488 			"/>
			<polygon style="fill:#36CDE2;" points="347,427 334,488 302,456 			"/>
			<polygon style="fill:#4080FE;" points="302,456 262,485 334,488 			"/>
			<polygon style="fill:#6B00F5;" points="262,485 334,488 309,513 			"/>
			<polygon style="fill:#94D41E;" points="363,470 409.571,500.571 405,446 			"/>
			<polygon style="fill:#48E1ED;" points="363,470 409.571,500.571 368,503 			"/>
			<polygon style="fill:#36CDE2;" points="363,470 334,488 368,503 			"/>
			<polygon style="fill:#3FA2FF;" points="368,503 334,488 350,519 			"/>
			<polygon style="fill:#7F3EE5;" points="334,488 309,513 350,519 			"/>
			<polygon style="fill:#3CAA37;" points="409.571,500.571 405,446 439.875,422.625 			"/>
			<polygon style="fill:#FB4919;" points="439.875,422.625 507,448 447,380 			"/>
			<polygon style="fill:#6B00F5;" points="350,519 307,532 309,513 			"/>
			<polygon style="fill:#7F3EE5;" points="350,519 269,566 307,532 			"/>
			<polygon style="fill:#4080FE;" points="245,563 269,566 307,532 			"/>
			<polygon style="fill:#36CDE2;" points="269,566 245,563 177,579 			"/>
			<polygon style="fill:#4080FE;" points="177,579 275,579 269,566 			"/>
			<polygon style="fill:#3FA2FF;" points="350,519 368,503 409.571,500.571 			"/>
			<polygon style="fill:#4080FE;" points="310,567 350,519 409.571,500.571 			"/>
			<polygon style="fill:#6B00F5;" points="409.571,500.571 310,567 327,570 			"/>
			<polygon style="fill:#4080FE;" points="310,567 374,579 311,579 			"/>
			<polygon style="fill:#36CDE2;" points="310,567 311,579 267,579 			"/>
			<polygon style="fill:#DF0953;" points="439.875,422.625 497,480 507,448 			"/>
			<polygon style="fill:#FB4919;" points="497,480 507,448 585.917,487.333 			"/>
			<polygon style="fill:#B501E0;" points="439.875,422.625 497,480 488.25,500 			"/>
			<polygon style="fill:#4080FE;" points="409.571,500.571 439.875,422.625 448,503 			"/>
			<polygon style="fill:#7F3EE5;" points="439.875,422.625 448,503 488.25,500 			"/>
			<polygon style="fill:#5725B7;" points="488.25,500 710.333,576.667 528.667,493.667 			"/>
			<polygon style="fill:#DF0953;" points="585.917,487.333 710.333,576.667 752,577 			"/>
			<polygon style="fill:#FFD200;" points="361,380 347,427 405,446 			"/>
			<polygon style="fill:#7F3EE5;" points="488.25,500 497,480 585.917,487.333 			"/>
			<polygon style="fill:#B501E0;" points="710.333,576.667 585.917,487.333 528.667,493.667 			"/>
			<polygon style="fill:#7F3EE5;" points="488.25,500 497,480 528.667,493.667 			"/>
		</g>
	</g>
</g>
</svg>
